<svg xmlns="http://www.w3.org/2000/svg" viewBox="0 0 164.02 200"><defs><style>.cls-1{fill:#bcf819;}</style></defs><title>artistas-moda-icon</title><g id="Layer_2" data-name="Layer 2"><g id="artistas"><path class="cls-1" d="M87.77,30.94,82,36.85l-5.77-5.91H69.66L82,43.56,94.34,30.94Zm9.71,84.18L82,130.6,66.56,115.12H59.92L82,137.24l22.1-22.12ZM94.34,30.94H87.77L82,36.85l-5.77-5.91H69.66L82,43.56Z"/><polygon class="cls-1" points="161.74 0.14 92.58 70.76 92.58 110.06 82 120.64 71.44 110.06 71.44 70.76 2.28 0.14 29.61 0 82 53.63 134.41 0 161.74 0.14"/><polygon class="cls-1" points="149.66 200 128.55 200 128.55 76.1 149.66 55.28 149.66 200"/><polygon class="cls-1" points="35.88 200 14.76 200 14.76 55.28 35.88 76.1 35.88 200"/><polygon class="cls-1" points="7.04 200 0 200 0 6.05 65.27 73.16 65.27 100.29 58.23 100.29 58.23 76.02 7.04 23.38 7.04 200"/><polygon class="cls-1" points="164.02 200 156.98 200 156.98 23.38 105.78 76.02 105.78 100.29 98.74 100.29 98.74 73.16 164.02 6.05 164.02 200"/></g></g></svg>