<svg xmlns="http://www.w3.org/2000/svg" viewBox="0 0 206 200"><defs><style>.cls-1{fill:#555;}</style></defs><title>artistas-participe-icon</title><g id="Layer_2" data-name="Layer 2"><g id="artistas"><path class="cls-1" d="M196.56,56.56a92.31,92.31,0,0,1,7.89,37.22,88.51,88.51,0,0,1-3.56,25.11,50.05,50.05,0,0,0-8-17.67,54.63,54.63,0,0,0,.44-7.44,80.17,80.17,0,0,0-6.11-30.56,31.93,31.93,0,0,1-14.56,3.44,33.36,33.36,0,0,1-33.33-33.33,32.81,32.81,0,0,1,3-13.67,78,78,0,0,0-28.44-5.33A73.67,73.67,0,0,0,96,16.44,46.65,46.65,0,0,1,114.67,3.22a90,90,0,0,1,34.11,7A32.88,32.88,0,0,1,172.67,0,33.29,33.29,0,0,1,206,33.33,32.84,32.84,0,0,1,196.56,56.56Z"/><path class="cls-1" d="M99,4.44A51.88,51.88,0,0,0,85.56,19.67,79.56,79.56,0,0,0,49,48a33.29,33.29,0,0,1-12.67,62.56,77.35,77.35,0,0,0,16.56,34,55,55,0,0,0,4,19.67,91.47,91.47,0,0,1-32.22-54.67,33.29,33.29,0,0,1,8.67-65.44,22.47,22.47,0,0,1,4.78.44A89.71,89.71,0,0,1,99,4.44Z"/><path class="cls-1" d="M195.67,131.44a8.4,8.4,0,0,1-.11,1.67,91.94,91.94,0,0,1-22.22,29.11,29.9,29.9,0,0,1,.33,4.44,33.31,33.31,0,0,1-61.56,17.67A88.19,88.19,0,0,1,69.78,173a45,45,0,0,1-9.33-20.67,78.32,78.32,0,0,0,47.22,20.78,31,31,0,0,1-.67-6.44,33.33,33.33,0,0,1,62.44-16.22,78.29,78.29,0,0,0,21.78-38.89A45.79,45.79,0,0,1,195.67,131.44Z"/><path class="cls-1" d="M172.67,89.67v1.22a13.08,13.08,0,0,0-2.11-1.22Z"/><path class="cls-1" d="M172.67,89.67v1.22a13.08,13.08,0,0,0-2.11-1.22Z"/><path class="cls-1" d="M109.73,140a1.4,1.4,0,0,1-1.84-1.4,22.91,22.91,0,0,1,40.8-13.24,1.4,1.4,0,0,1-2.2,1.75,20.1,20.1,0,0,0-35.8,11.61A1.41,1.41,0,0,1,109.73,140Z"/><path class="cls-1" d="M97.94,136.23a2.1,2.1,0,0,1-2.75-2.1,34.37,34.37,0,0,1,61.21-19.86,2.11,2.11,0,0,1-3.29,2.63,30.15,30.15,0,0,0-53.7,17.42A2.11,2.11,0,0,1,97.94,136.23Z"/><path class="cls-1" d="M159.11,74.62a1.4,1.4,0,0,1-.51,2.25,22.91,22.91,0,0,1-29-31.59,1.4,1.4,0,0,1,2.51,1.27,20.1,20.1,0,0,0,25.46,27.72A1.41,1.41,0,0,1,159.11,74.62Z"/><path class="cls-1" d="M160.62,86.89a2.1,2.1,0,0,1-.76,3.38,34.37,34.37,0,0,1-43.53-47.39,2.11,2.11,0,1,1,3.76,1.9,30.15,30.15,0,0,0,38.19,41.58A2.11,2.11,0,0,1,160.62,86.89Z"/><path class="cls-1" d="M71.33,66.9A1.4,1.4,0,0,1,73.46,66a22.91,22.91,0,0,1-9.06,41.93,1.4,1.4,0,0,1-.41-2.78,20.1,20.1,0,0,0,7.95-36.79A1.41,1.41,0,0,1,71.33,66.9Z"/><path class="cls-1" d="M80.49,58.59a2.1,2.1,0,0,1,3.2-1.33,34.37,34.37,0,0,1-13.58,62.9,2.11,2.11,0,1,1-.62-4.17A30.15,30.15,0,0,0,81.41,60.81,2.11,2.11,0,0,1,80.49,58.59Z"/></g></g></svg>