<svg xmlns="http://www.w3.org/2000/svg" viewBox="0 0 129.31 200"><defs><style>.cls-1{fill:#fc9e00;}</style></defs><title>artistas-musica-icon</title><g id="Layer_2" data-name="Layer 2"><g id="artistas"><path class="cls-1" d="M87.6,121.45,64,147,39.75,120.74a71.6,71.6,0,0,0,47.85.7Z"/><path class="cls-1" d="M21.56,110.78V200H0V84.49A71.91,71.91,0,0,0,21.56,110.78Z"/><path class="cls-1" d="M128,87.07V200H106.44V111.77A72.2,72.2,0,0,0,128,87.07Z"/><path class="cls-1" d="M107.76,53.54a43.1,43.1,0,0,1-86.21,0H0a64.66,64.66,0,0,0,129.31,0Z"/><path class="cls-1" d="M35.1,47.5a2.06,2.06,0,0,1-1.93-2.78,33.64,33.64,0,0,1,63-.08,2.06,2.06,0,0,1-3.86,1.46A29.51,29.51,0,0,0,37,46.16,2.07,2.07,0,0,1,35.1,47.5Z"/><path class="cls-1" d="M20.32,37a3.09,3.09,0,0,1-2.9-4.17,50.46,50.46,0,0,1,94.48-.13,3.09,3.09,0,0,1-5.79,2.19,44.27,44.27,0,0,0-82.89.1A3.1,3.1,0,0,1,20.32,37Z"/><circle class="cls-1" cx="64.66" cy="55.28" r="10.91"/></g></g></svg>