<svg xmlns="http://www.w3.org/2000/svg" viewBox="0 0 288.13 200"><defs><style>.cls-1{fill:#18cc58;}</style></defs><title>artistas-danca-icon</title><g id="Layer_2" data-name="Layer 2"><g id="artistas"><path class="cls-1" d="M20.26,22.43V43.61a67.6,67.6,0,1,1,0,135.2V200a88.78,88.78,0,1,0,0-177.56Z"/><path class="cls-1" d="M245.93,118.06a39.67,39.67,0,0,1-79.34,0H145.4a60.85,60.85,0,0,0,121.71,0Z"/><rect class="cls-1" y="22.43" width="7.06" height="177.57"/><rect class="cls-1" x="145.4" y="98.11" width="121.71" height="7.06"/><path class="cls-1" d="M288.13,118.06a81.93,81.93,0,1,1-163.86,0c0-.92,0-1.84,0-2.75l.07-1.41v-.12c0-.85,0-1.72,0-2.57A104.27,104.27,0,0,0,20.26,7.06V0A111.11,111.11,0,0,1,131.47,111.21c0,1,0,1.91,0,2.87,0,.38,0,.75,0,1.11,0,1,0,1.91,0,2.87a74.87,74.87,0,1,0,149.74,0Z"/></g></g></svg>