<svg xmlns="http://www.w3.org/2000/svg" viewBox="0 0 159.66 200"><defs><style>.cls-1{fill:#0083fc;}</style></defs><title>artistas-teatro-icon</title><g id="Layer_2" data-name="Layer 2"><g id="artistas"><path class="cls-1" d="M150.89,28.59a72.78,72.78,0,0,1-142.12,0H1.55a79.85,79.85,0,0,0,156.55,0Z"/><rect class="cls-1" y="144.89" width="61.64" height="7.05"/><rect class="cls-1" x="98.01" y="144.89" width="61.64" height="7.05"/><rect class="cls-1" y="121.1" width="61.64" height="7.05"/><rect class="cls-1" x="98.01" y="121.1" width="61.64" height="7.05"/><rect class="cls-1" y="192.48" width="61.64" height="7.05"/><rect class="cls-1" x="98.01" y="192.48" width="61.64" height="7.05"/><rect class="cls-1" y="168.68" width="61.64" height="7.05"/><rect class="cls-1" x="98.01" y="168.68" width="61.64" height="7.05"/><polygon class="cls-1" points="159.66 0 159.66 21.16 90.42 21.16 90.42 200 69.26 200 69.26 21.16 0 21.16 0 0 159.66 0"/></g></g></svg>