<svg xmlns="http://www.w3.org/2000/svg" viewBox="0 0 46 46"><defs><style>.cls-1{fill:#f7efe7;}</style></defs><title>exploremais-youtube-icon</title><g id="Layer_2" data-name="Layer 2"><g id="artistas_icon" data-name="artistas icon"><path class="cls-1" d="M44,2V44H2V2H44m2-2H0V46H46V0Z"/><path class="cls-1" d="M39.83,16.13a7.52,7.52,0,0,0-1.37-3.41A4.88,4.88,0,0,0,35,11.28c-4.81-.36-12-.36-12-.36h0s-7.21,0-12,.36a4.89,4.89,0,0,0-3.46,1.44,7.39,7.39,0,0,0-1.35,3.41,52.19,52.19,0,0,0-.34,5.56v2.62a52.18,52.18,0,0,0,.34,5.56,7.26,7.26,0,0,0,1.35,3.39,5.88,5.88,0,0,0,3.8,1.48c2.75.26,11.68.34,11.68.34s7.21,0,12-.37a4.92,4.92,0,0,0,3.43-1.46,7.38,7.38,0,0,0,1.37-3.39,52.26,52.26,0,0,0,.34-5.56V21.69A52.26,52.26,0,0,0,39.83,16.13ZM19.44,27.47V17.8l9.3,4.85Z"/></g></g></svg>