<svg xmlns="http://www.w3.org/2000/svg" viewBox="0 0 46 46"><defs><style>.cls-1{fill:#f7efe7;}</style></defs><title>exploremais-fb-icon</title><g id="Layer_2" data-name="Layer 2"><g id="artistas_icon" data-name="artistas icon"><path class="cls-1" d="M44,2V44H2V2H44m2-2H0V46H46V0Z"/><path class="cls-1" d="M31.11,13.2a.61.61,0,0,1-.61.61H27.88c-1.81,0-2.14.71-2.14,2.09v2.88h4.57a.61.61,0,0,1,.43.18.63.63,0,0,1,.18.43v4.93a.61.61,0,0,1-.61.61H25.74V37.39a.61.61,0,0,1-.61.61H20a.61.61,0,0,1-.61-.61V24.94H15.5a.61.61,0,0,1-.61-.61V19.4a.61.61,0,0,1,.61-.61h3.92v-3.4C19.42,10.9,22.24,8,26.61,8H30.5a.61.61,0,0,1,.61.61Z"/></g></g></svg>