<svg xmlns="http://www.w3.org/2000/svg" viewBox="0 0 46 46"><defs><style>.cls-1{fill:#f7efe7;}</style></defs><title>exploremais-twitter-icon</title><g id="Layer_2" data-name="Layer 2"><g id="artistas_icon" data-name="artistas icon"><path class="cls-1" d="M44,2V44H2V2H44m2-2H0V46H46V0Z"/><path class="cls-1" d="M36,16.35q0,.43,0,.87c0,8.84-6.73,19-19,19a18.94,18.94,0,0,1-10.26-3,13.59,13.59,0,0,0,1.6.09,13.42,13.42,0,0,0,8.31-2.86,6.7,6.7,0,0,1-6.25-4.65,6.71,6.71,0,0,0,3-.11A6.69,6.69,0,0,1,8,19.15s0-.06,0-.08a6.66,6.66,0,0,0,3,.84A6.7,6.7,0,0,1,9,11a19,19,0,0,0,13.79,7,6.69,6.69,0,0,1,11.4-6.1,13.39,13.39,0,0,0,4.25-1.62,6.71,6.71,0,0,1-2.94,3.7,13.38,13.38,0,0,0,3.84-1.05A13.6,13.6,0,0,1,36,16.35Z"/></g></g></svg>