<svg xmlns="http://www.w3.org/2000/svg" viewBox="0 0 46 46"><defs><style>.cls-1{fill:#f7efe7;}</style></defs><title>exploremais-instagram-icon</title><g id="Layer_2" data-name="Layer 2"><g id="artistas_icon" data-name="artistas icon"><path class="cls-1" d="M44,2V44H2V2H44m2-2H0V46H46V0Z"/><path class="cls-1" d="M23,8.42c-4,0-4.46,0-6,.09a10.71,10.71,0,0,0-3.54.68,7.45,7.45,0,0,0-4.26,4.26A10.72,10.72,0,0,0,8.51,17c-.07,1.55-.09,2-.09,6s0,4.46.09,6a10.72,10.72,0,0,0,.68,3.54,7.45,7.45,0,0,0,4.26,4.26,10.66,10.66,0,0,0,3.54.68c1.55.07,2.05.09,6,.09s4.45,0,6-.09a10.66,10.66,0,0,0,3.54-.68,7.45,7.45,0,0,0,4.26-4.26A10.72,10.72,0,0,0,37.49,29c.07-1.55.09-2,.09-6s0-4.45-.09-6a10.72,10.72,0,0,0-.68-3.54,7.45,7.45,0,0,0-4.26-4.26A10.71,10.71,0,0,0,29,8.51c-1.56-.07-2.05-.09-6-.09M23,11c3.89,0,4.35,0,5.89.08a8,8,0,0,1,2.71.5,4.83,4.83,0,0,1,2.77,2.76,8.12,8.12,0,0,1,.5,2.71c.07,1.54.08,2,.08,5.89s0,4.35-.08,5.89a8.09,8.09,0,0,1-.5,2.71,4.83,4.83,0,0,1-2.77,2.77,8,8,0,0,1-2.71.5c-1.54.07-2,.09-5.89.09s-4.35,0-5.89-.09a8,8,0,0,1-2.71-.5,4.83,4.83,0,0,1-2.77-2.77,8.09,8.09,0,0,1-.5-2.71c-.07-1.54-.08-2-.08-5.89s0-4.35.08-5.89a8.12,8.12,0,0,1,.5-2.71,4.83,4.83,0,0,1,2.77-2.76,8,8,0,0,1,2.71-.5c1.54-.07,2-.08,5.89-.08"/><path class="cls-1" d="M23,27.8a5,5,0,1,1,5-5,5,5,0,0,1-5,5M23,15.1a7.71,7.71,0,1,0,7.7,7.7A7.7,7.7,0,0,0,23,15.1"/><path class="cls-1" d="M32.81,14.79A1.8,1.8,0,1,1,31,13a1.8,1.8,0,0,1,1.8,1.8"/></g></g></svg>