<svg xmlns="http://www.w3.org/2000/svg" viewBox="0 0 46 46"><defs><style>.cls-1{fill:#f7efe7;}</style></defs><title>exploremais-vimeo-icon</title><g id="Layer_2" data-name="Layer 2"><g id="artistas_icon" data-name="artistas icon"><path class="cls-1" d="M44,2V44H2V2H44m2-2H0V46H46V0Z"/><path class="cls-1" d="M32.06,28.13q-6.25,8.12-10.57,8.12-2.68,0-4.53-4.95l-2.47-9.07q-1.38-4.94-3-4.95a9.48,9.48,0,0,0-2.4,1.44L7.68,16.88q2.27-2,4.47-4,3-2.61,4.54-2.75,3.58-.34,4.4,4.89.89,5.65,1.24,7,1,4.68,2.27,4.68,1,0,2.89-3a12,12,0,0,0,2.06-4.63q.28-2.62-2.06-2.62a5.74,5.74,0,0,0-2.27.5q2.26-7.4,8.63-7.19,4.72.14,4.45,6.12Q38.1,20.35,32.06,28.13Z"/></g></g></svg>