<svg xmlns="http://www.w3.org/2000/svg" viewBox="0 0 46 46"><defs><style>.cls-1{fill:#f7efe7;}</style></defs><title>exploremais-soundcloud-icon</title><g id="Layer_2" data-name="Layer 2"><g id="artistas_icon" data-name="artistas icon"><path class="cls-1" d="M44,2V44H2V2H44m2-2H0V46H46V0Z"/><path class="cls-1" d="M6.64,23.43a.15.15,0,0,0-.29,0L6,26.59l.35,3.09a.15.15,0,0,0,.29,0L7,26.59Z"/><path class="cls-1" d="M12.09,20.51a.27.27,0,0,0-.27.26l-.28,5.82.28,3.76a.27.27,0,0,0,.53,0h0l.31-3.76-.31-5.82A.27.27,0,0,0,12.09,20.51Z"/><path class="cls-1" d="M9.27,22.54a.21.21,0,0,0-.21.2l-.31,3.85.31,3.73a.21.21,0,0,0,.41,0l.35-3.73-.35-3.86A.21.21,0,0,0,9.27,22.54Z"/><path class="cls-1" d="M15,30.62a.33.33,0,0,0,.33-.32l.27-3.7-.27-7.75a.33.33,0,0,0-.65,0L14.4,26.6l.24,3.7A.33.33,0,0,0,15,30.62Z"/><path class="cls-1" d="M20.83,30.64a.45.45,0,0,0,.45-.44h0l.19-3.59-.19-8.94a.45.45,0,0,0-.89,0l-.17,8.94.17,3.6A.45.45,0,0,0,20.83,30.64Z"/><path class="cls-1" d="M17.88,30.62a.39.39,0,0,0,.39-.39h0l.23-3.64-.23-7.8a.39.39,0,0,0-.77,0l-.2,7.8.2,3.64A.39.39,0,0,0,17.88,30.62Z"/><path class="cls-1" d="M35.67,22a4.32,4.32,0,0,0-1.68.34,7.64,7.64,0,0,0-7.61-7,7.74,7.74,0,0,0-2.77.52c-.33.13-.41.26-.42.51V30.13a.52.52,0,0,0,.47.51h12a4.33,4.33,0,0,0,0-8.66Z"/></g></g></svg>