<svg xmlns="http://www.w3.org/2000/svg" viewBox="0 0 46 46"><defs><style>.cls-1{fill:#f7efe7;}</style></defs><title>exploremais-site-icon</title><g id="Layer_2" data-name="Layer 2"><g id="artistas_icon" data-name="artistas icon"><path class="cls-1" d="M40,0H6A6,6,0,0,0,0,6V46H46V6A6,6,0,0,0,40,0Zm4,44H2V12.5H44ZM2,11.5V6A4,4,0,0,1,6,2H40a4,4,0,0,1,4,4v5.5Z"/><circle class="cls-1" cx="7.94" cy="6.83" r="2.5"/><circle class="cls-1" cx="14.94" cy="6.83" r="2.5"/><circle class="cls-1" cx="21.94" cy="6.83" r="2.5"/><path class="cls-1" d="M11.47,27.05,8.87,32h-2l-.6-7.23h1.9l.28,4.86,2.67-4.86h1.69l.49,4.86,2.44-4.86h2L13.94,32h-2Z"/><path class="cls-1" d="M23,27.05,20.38,32h-2l-.6-7.23h1.9l.28,4.86,2.67-4.86h1.69l.49,4.86,2.44-4.86h2L25.45,32h-2Z"/><path class="cls-1" d="M34.49,27.05,31.89,32h-2l-.6-7.23h1.9l.28,4.86,2.67-4.86h1.69l.49,4.86,2.44-4.86h2L37,32h-2Z"/></g></g></svg>