<svg xmlns="http://www.w3.org/2000/svg" viewBox="0 0 795 200.09"><defs><style>.cls-1{fill:#ff9400;}.cls-2{fill:#18cc58;}.cls-3{fill:#fb402d;}.cls-4{fill:#f7efe7;}.cls-5{fill:#0083fc;}.cls-6{fill:#53417b;}</style></defs><title>malungo-logo</title><g id="Layer_2" data-name="Layer 2"><g id="Layer_1-2" data-name="Layer 1"><rect class="cls-1" x="132.77" y="71.52" width="35.21" height="4.17"/><path class="cls-2" d="M288.36,52.19a25,25,0,1,1-25,25,25.08,25.08,0,0,1,25-25Zm0-12.52a37.57,37.57,0,1,0,37.57,37.57,37.57,37.57,0,0,0-37.57-37.57Z"/><polygon class="cls-3" points="73.9 37.1 48.18 63.31 48.18 78.05 44.01 82.22 39.83 78.05 39.83 63.15 14.28 37.1 25.97 37.01 44.09 55.55 62.21 37.01 73.9 37.1"/><path class="cls-2" d="M272.09,33.35a2.09,2.09,0,0,1-1.44-3.6A25.84,25.84,0,0,1,306,29.44a2.09,2.09,0,1,1-2.82,3.08,21.66,21.66,0,0,0-29.7.26A2.09,2.09,0,0,1,272.09,33.35Z"/><path class="cls-2" d="M258.43,28.75a2.08,2.08,0,0,1-2-2.82,34.05,34.05,0,0,1,63.76-.08,2.09,2.09,0,1,1-3.91,1.47,29.88,29.88,0,0,0-55.95.07A2.09,2.09,0,0,1,258.43,28.75Z"/><rect class="cls-1" x="112.89" y="122.77" width="74.97" height="4.17"/><path class="cls-4" d="M611.08,45.75a54.78,54.78,0,0,0-48.26,28.8,54.82,54.82,0,1,0,0,52.14,54.86,54.86,0,1,0,48.26-80.94Zm0,96.1a41.33,41.33,0,0,1-40.55-33.52H526.35v4.52h27.56a41.24,41.24,0,1,1,1.45-18.1h14.87a41.27,41.27,0,1,1,40.85,47.11Z"/><path class="cls-5" d="M651.47,108.61a5.68,5.68,0,0,1-.08.88,34.33,34.33,0,0,1-2.38,7.43,41.32,41.32,0,0,1-74,3.8,35.76,35.76,0,0,1-2.21-4.59,46.23,46.23,0,0,1-3-15.49C569,70.54,545.35,46,515.21,46c-28.89,0-53.6,22.54-55.48,51q-.13,1.75-.13,3.63c0,1,.13,3.42.13,3.72a4.26,4.26,0,0,1-8.43.88c0-.25-.21-3.38-.21-4.59s0-2.46.13-3.63c1.88-33.15,30.48-59.53,64-59.53a63.19,63.19,0,0,1,59.82,43,61.63,61.63,0,0,1,3.3,20.12,32.78,32.78,0,0,0,62.54,13.65,31.51,31.51,0,0,0,2.17-6.43.25.25,0,0,1,0-.17,4.18,4.18,0,0,1,4.13-3.34A4.28,4.28,0,0,1,651.47,108.61Z"/><path class="cls-5" d="M572.82,116.12a40.78,40.78,0,0,1-3-15.49A46.23,46.23,0,0,0,572.82,116.12Z"/><path class="cls-2" d="M288.14,129.44a45.37,45.37,0,0,1-24.2-6.64,2.09,2.09,0,1,1,2.25-3.51A43.22,43.22,0,0,0,310.5,119a2.09,2.09,0,1,1,2.3,3.48A45.06,45.06,0,0,1,288.14,129.44Z"/><rect class="cls-6" x="112.89" y="137.5" width="74.97" height="12.52"/><rect class="cls-6" x="305.07" y="137.5" width="51.17" height="12.52"/><rect class="cls-6" x="686.47" y="46.36" width="108.53" height="12.52"/><path class="cls-4" d="M795,75.71v51.22h0a24.9,24.9,0,0,1-49.8,0V84H695.43v24.63h28.51v4.17H695.43v29.26h41.41v8.27H687.12V75.71h66.29v51.22a16.64,16.64,0,0,0,33.27,0V108.36l0,0V75.71Z"/><polygon class="cls-4" points="88.19 150.03 75.36 150.03 75.36 74.54 44.09 107.58 12.83 74.54 12.83 150.03 0 150.03 0 42.53 44.09 89.13 88.19 42.53 88.19 150.03"/><path class="cls-4" d="M150.38,39.53l20.1,60.17h-40.2l20.1-60.17Zm0-39.53L112.89,112.22h75L150.38,0Z"/><polygon class="cls-4" points="305.07 150.03 212.56 150.03 212.56 42.53 225.09 42.53 225.09 137.5 305.07 137.5 305.07 150.03"/><path class="cls-4" d="M313.41,0V77.94h0a25,25,0,0,1-50,0h0V14.78h0V0H250.79V77.23a37.57,37.57,0,1,0,75.14,0V0Z"/><polygon class="cls-4" points="438.52 200.09 363.37 86.33 363.37 150.03 350.85 150.03 350.85 42.53 425.99 158.41 425.99 0 438.52 0 438.52 200.09"/><path class="cls-4" d="M17.57,193.65a8.31,8.31,0,0,1-7.81,4.77c-5.09,0-8.74-3.57-8.74-8.48a8.36,8.36,0,0,1,8.71-8.54,8.05,8.05,0,0,1,7.78,4.82l-2.92.79a5.45,5.45,0,0,0-4.82-2.81,5.7,5.7,0,0,0,0,11.4,5.46,5.46,0,0,0,4.91-2.75Z"/><path class="cls-4" d="M37.29,190.75c0,5.23-2.75,7.66-7.25,7.66s-7.22-2.43-7.22-7.66v-9H26V191c0,3.1,1.35,4.56,4.15,4.56s4.15-1.46,4.15-4.56v-9.33h3Z"/><path class="cls-4" d="M43.48,181.72h3.07v13.51h8.07v2.87H43.48Z"/><path class="cls-4" d="M64.88,184.58v13.51H61.81V184.58H56.26v-2.87H70.41v2.87Z"/><path class="cls-4" d="M90,190.75c0,5.23-2.75,7.66-7.25,7.66s-7.22-2.43-7.22-7.66v-9H78.7V191c0,3.1,1.35,4.56,4.15,4.56S87,194.14,87,191v-9.33h3Z"/><path class="cls-4" d="M102.43,192c-.53,0-1.37,0-1.7,0H99.3v6H96.23V181.72h5.88c4.18,0,6.61,1.93,6.61,5.17a4.44,4.44,0,0,1-3.36,4.56l4,6.64h-3.31Zm-.18-2.36c2.19,0,3.33-.88,3.33-2.61s-1.2-2.57-3.33-2.57h-3v5.18Z"/><path class="cls-4" d="M117.89,194.23l-1.43,3.86h-3.13l6.4-16.37h3.71l6.4,16.37h-3.18l-1.44-3.86Zm5.21-5.79c-1.06-2.8-1.46-4.12-1.49-4.15h-.09l-1.58,4.33-1.08,3h5.41Z"/><path class="cls-4" d="M144.45,181.72h12v2.87h-8.89v3.74h6.7V191h-6.7v4.18h9v2.87h-12.1Z"/><path class="cls-4" d="M175.87,190.28l0-4.06h-.09l-4.21,7.93h-2l-4.27-8.1h-.06s0,2.57,0,4.06v8h-3V181.72H166l3,5.5c1.06,1.9,1.64,3.16,1.67,3.16h.09c.06,0,.67-1.26,1.72-3.19l3-5.47h3.45v16.37h-3.07Z"/><path class="cls-4" d="M208.57,190.28l0-4.06h-.09l-4.21,7.93h-2L198,186H198s0,2.57,0,4.06v8h-3V181.72h3.74l3,5.5c1.06,1.9,1.64,3.16,1.67,3.16h.09c.06,0,.67-1.26,1.72-3.19l3-5.47h3.45v16.37h-3.07Z"/><path class="cls-4" d="M225.69,181.4a8.51,8.51,0,1,1-8.66,8.51A8.37,8.37,0,0,1,225.69,181.4Zm0,14.21a5.7,5.7,0,1,0-5.56-5.7A5.42,5.42,0,0,0,225.69,195.6Z"/><path class="cls-4" d="M244.3,198.09l-6.76-16.37h3.39L244,189.2c1.46,3.68,2.14,5.5,2.16,5.55h.09c0-.06.67-1.81,2.16-5.52l3-7.51h3.27l-6.78,16.37Z"/><path class="cls-4" d="M259.5,181.72h3.07v16.37H259.5Z"/><path class="cls-4" d="M282.53,190.28l0-4.06h-.09l-4.21,7.93h-2L272,186h-.06s0,2.57,0,4.06v8h-3V181.72h3.74l3,5.5c1.05,1.9,1.64,3.16,1.67,3.16h.09c.06,0,.67-1.26,1.72-3.19l3-5.47h3.45v16.37h-3.07Z"/><path class="cls-4" d="M292,181.72h12v2.87h-8.89v3.74h6.69V191h-6.69v4.18h9v2.87H292Z"/><path class="cls-4" d="M321.31,198.09,313,186.42h-.09s.06,1.79.06,3.71v8h-3.07V181.72H313l8.33,11.43h.06s0-1.64,0-3.36v-8.07h3.07v16.37Z"/><path class="cls-4" d="M338.49,184.58v13.51h-3.07V184.58h-5.55v-2.87H344v2.87Z"/><path class="cls-4" d="M356,181.4a8.51,8.51,0,1,1-8.66,8.51A8.37,8.37,0,0,1,356,181.4Zm0,14.21a5.7,5.7,0,1,0-5.56-5.7A5.42,5.42,0,0,0,356,195.6Z"/></g></g></svg>