<svg xmlns="http://www.w3.org/2000/svg" viewBox="0 0 100 105.69"><defs><style>.cls-1{fill:#c5006c;}</style></defs><title>malunguice-mais</title><g id="Layer_2" data-name="Layer 2"><g id="Layer_1-2" data-name="Layer 1"><path class="cls-1" d="M83.33,55.69a33.33,33.33,0,0,1-66.67,0H0a50,50,0,0,0,100,0Z"/><path class="cls-1" d="M3.26,39a3.26,3.26,0,0,1-3.06-4.4,53.19,53.19,0,0,1,99.58-.13,3.26,3.26,0,1,1-6.1,2.3,46.66,46.66,0,0,0-87.37.11A3.27,3.27,0,0,1,3.26,39Z"/><path class="cls-1" d="M50,78.25a1.81,1.81,0,0,1-1.81-1.81V29.26a1.81,1.81,0,1,1,3.62,0V76.43A1.81,1.81,0,0,1,50,78.25Z"/><rect class="cls-1" x="26.41" y="51.03" width="47.18" height="3.62"/></g></g></svg>