<svg xmlns="http://www.w3.org/2000/svg" viewBox="0 0 316.87 93.38"><defs><style>.cls-1{fill:#fb402d;}.cls-2{fill:#0083fc;}.cls-3{fill:#f6efe7;}.cls-4{fill:#18cc58;}</style></defs><title>titulo-paises</title><g id="Layer_2" data-name="Layer 2"><g id="Layer_1-2" data-name="Layer 1"><rect class="cls-1" x="117.75" y="76.26" width="188.53" height="4"/><path class="cls-2" d="M96.91,93.38A17.13,17.13,0,0,1,79.8,76.26H83.5a13.4,13.4,0,0,0,26.81,0H114A17.13,17.13,0,0,1,96.91,93.38Z"/><path class="cls-3" d="M30.43.91H4.14v0H0v67.4H7.49V34.64H30.43v0a16.85,16.85,0,0,0,0-33.7Zm0,26.21v0H7.49V8.4H30.43a9.36,9.36,0,1,1,0,18.72Z"/><polygon class="cls-3" points="209.46 8.38 209.46 29.1 235.25 29.1 235.25 31.59 209.46 31.59 209.46 60.85 246.88 60.85 246.88 68.34 201.97 68.34 201.97 0.89 246.88 0.89 246.88 8.38 209.46 8.38"/><path class="cls-3" d="M306.28,48.76a21.26,21.26,0,0,1-42.51,0h7.49A13.77,13.77,0,1,0,285,35a17.5,17.5,0,1,1,17.5-17.5H295a10,10,0,1,0-10,10A21.24,21.24,0,0,1,306.28,48.76Z"/><path class="cls-3" d="M181.2,48.76a21.26,21.26,0,0,1-42.51,0h7.49A13.77,13.77,0,1,0,160,35a17.5,17.5,0,1,1,17.5-17.5H170a10,10,0,1,0-10,10A21.24,21.24,0,0,1,181.2,48.76Z"/><path class="cls-3" d="M69.7,24.67l12,36.18H57.67l12-36.18M69.7.94,47.28,68.34H92.11L69.7.94Z"/><polygon class="cls-3" points="129.16 0.81 117.75 12.25 117.75 68.34 110.26 68.34 110.26 0.91 117.75 0.91 117.75 8.7 125.64 0.81 129.16 0.81"/><rect class="cls-4" x="312.87" y="51.8" width="4" height="28.8"/></g></g></svg>