<svg xmlns="http://www.w3.org/2000/svg" viewBox="0 0 680.33 103.07"><defs><style>.cls-1{fill:#0083fc;}.cls-2{fill:#c5006c;}.cls-3{fill:#18cc58;}.cls-4{fill:#53417b;}.cls-5{fill:#303331;}.cls-6{fill:#fb402d;}</style></defs><title>titulo-malunguices</title><g id="Layer_2" data-name="Layer 2"><g id="Layer_1-2" data-name="Layer 1"><rect class="cls-1" y="10.02" width="4" height="42.95"/><rect class="cls-2" x="335.13" y="86.2" width="45.54" height="4"/><rect class="cls-3" x="136.93" y="86.2" width="174.65" height="4"/><rect class="cls-4" x="325.83" y="81.62" width="4" height="23.47" transform="translate(30 259.16) rotate(-45)"/><rect class="cls-1" x="676.33" y="61.58" width="4" height="28.8"/><path class="cls-5" d="M551.45,53.64a27.38,27.38,0,1,1-.1-17.66h7.8a34.82,34.82,0,1,0,.07,17.66Z"/><rect class="cls-5" x="468.59" y="11.34" width="7.45" height="67.07"/><polygon class="cls-5" points="183.93 75.94 183.93 78.43 136.93 78.43 136.93 11.37 144.38 11.37 144.38 75.94 183.93 75.94"/><polygon class="cls-5" points="263.15 78.43 255.7 78.43 255.7 11.87 304.13 60 304.13 11.37 311.58 11.37 311.58 77.91 263.15 29.78 263.15 78.43"/><path class="cls-5" d="M392.61,50a34.88,34.88,0,1,1,.2-8.07h-7.5a27.36,27.36,0,1,0-.84,10.56h-25V50Z"/><path class="cls-5" d="M241,11.47v46h0a22.39,22.39,0,0,1-44.78,0v-46h7.45v46a14.94,14.94,0,0,0,29.88,0V40.83l0,0V11.47Z"/><path class="cls-5" d="M451.75,11.47v46h0a22.39,22.39,0,0,1-44.78,0v-46h7.45v46a14.94,14.94,0,0,0,29.88,0V40.83l0,0V11.47Z"/><path class="cls-5" d="M100.65,35l12,36H88.68l12-36m0-23.61L78.35,78.43H123l-22.3-67.06Z"/><polygon class="cls-5" points="65.89 78.43 58.43 78.43 58.43 30.27 37.71 52.45 17.45 30.39 17.45 78.43 10 78.43 10 11.26 37.76 41.48 65.89 11.38 65.89 78.43"/><polygon class="cls-5" points="578.11 18.71 578.11 39.33 603.77 39.33 603.77 41.81 578.11 41.81 578.11 70.92 615.34 70.92 615.34 78.38 570.66 78.38 570.66 11.26 615.34 11.26 615.34 18.71 578.11 18.71"/><path class="cls-5" d="M670.44,58.89a21.15,21.15,0,0,1-42.3,0h7.45A13.7,13.7,0,1,0,649.3,45.2a17.41,17.41,0,1,1,17.41-17.41h-7.45a10,10,0,1,0-10,10A21.14,21.14,0,0,1,670.44,58.89Z"/><rect class="cls-6" x="451.75" width="15.54" height="4"/></g></g></svg>