<svg xmlns="http://www.w3.org/2000/svg" viewBox="0 0 1067.67 103.99"><defs><style>.cls-1{fill:#f6efe7;}.cls-2{fill:#c5006c;}.cls-3{fill:#18cc58;}.cls-4{fill:#003891;}.cls-5{fill:#40c1fb;}.cls-6{fill:#0083fc;}.cls-7{fill:#2f4644;}.cls-8{fill:#bb2000;}.cls-9{fill:#fb402d;}.cls-10{fill:#fb9d00;}.cls-11{fill:#53417b;}</style></defs><title>titulo-mafuademalungos</title><g id="Layer_2" data-name="Layer 2"><g id="Layer_1-2" data-name="Layer 1"><path class="cls-1" d="M388.7,11.67H363.93V79H388.7a33.68,33.68,0,0,0,0-67.36Zm0,59.87H371.41V19.15H388.7a26.2,26.2,0,0,1,0,52.39Z"/><path class="cls-1" d="M98.59,35.38l12,36.16h-24l12-36.16m0-23.72L76.19,79H121L98.59,11.67Z"/><path class="cls-1" d="M291.35,23.59l12-12h-3.52l-9.38,9.38-3.09-9.26L265,79h44.8Zm-4,11.8,12,36.15h-24Z"/><polygon class="cls-1" points="146.44 19.12 146.44 39.93 172.21 39.93 172.21 42.42 146.44 42.42 146.44 79.02 138.96 79.02 138.96 11.64 183.86 11.64 183.86 19.12 146.44 19.12"/><polygon class="cls-1" points="719.08 76.53 719.08 79.02 671.88 79.02 671.88 11.66 679.36 11.66 679.36 76.53 719.08 76.53"/><polygon class="cls-1" points="801.66 79.02 794.18 79.02 794.18 12.17 842.82 60.52 842.82 11.66 850.3 11.66 850.3 78.5 801.66 30.16 801.66 79.02"/><path class="cls-1" d="M928.68,50.5a35,35,0,1,1,.2-8.11h-7.53A27.48,27.48,0,1,0,920.5,53H895.4V50.5Z"/><path class="cls-1" d="M967.76,18.15a27.44,27.44,0,1,1-27.44,27.44,27.47,27.47,0,0,1,27.44-27.44m0-7.48a34.93,34.93,0,1,0,34.93,34.93,34.93,34.93,0,0,0-34.93-34.93Z"/><path class="cls-1" d="M776.43,11.81V58h0a22.49,22.49,0,0,1-45,0V11.81h7.48V58a15,15,0,0,0,30,0V41.3l0,0V11.81Z"/><path class="cls-1" d="M244.81,11.81V58h0a22.49,22.49,0,0,1-45,0V11.81h7.48V58a15,15,0,0,0,30,0V41.3l0,0V11.81Z"/><polygon class="cls-1" points="56.13 79.02 48.65 79.02 48.65 30.65 27.83 52.93 7.48 30.77 7.48 79.02 0 79.02 0 11.56 27.88 41.91 56.13 11.68 56.13 79.02"/><path class="cls-1" d="M635.44,35.38l12,36.16h-24l12-36.16m0-23.72L613,79h44.8l-22.4-67.36Z"/><polygon class="cls-1" points="593.49 79.02 586 79.02 586 30.65 565.19 52.93 544.84 30.77 544.84 79.02 537.36 79.02 537.36 11.56 565.24 41.91 593.49 11.68 593.49 79.02"/><polygon class="cls-1" points="443.16 19.1 443.16 39.8 468.93 39.8 468.93 42.3 443.16 42.3 443.16 71.54 480.56 71.54 480.56 79.02 435.68 79.02 435.68 11.62 480.56 11.62 480.56 19.1 443.16 19.1"/><path class="cls-1" d="M1056.73,59.33a21.24,21.24,0,0,1-42.48,0h7.48a13.76,13.76,0,1,0,13.77-13.75A17.49,17.49,0,1,1,1053,28.1h-7.48a10,10,0,1,0-10,10A21.23,21.23,0,0,1,1056.73,59.33Z"/><rect class="cls-2" width="56.13" height="4"/><rect class="cls-3" x="537.35" width="56.13" height="4"/><rect class="cls-4" x="1063.67" y="62.33" width="4" height="28.8"/><rect class="cls-5" x="75.45" y="87.12" width="45.54" height="4"/><rect class="cls-6" x="147.48" y="87.12" width="162.3" height="4"/><rect class="cls-7" x="119.55" y="92.28" width="23.47" height="4" transform="translate(-28.21 120.45) rotate(-45)"/><rect class="cls-8" x="613.04" y="87.12" width="45.54" height="4"/><rect class="cls-9" x="685.07" y="87.12" width="162.3" height="4"/><rect class="cls-10" x="657.14" y="92.28" width="23.47" height="4" transform="translate(129.24 500.58) rotate(-45)"/><path class="cls-11" d="M422.29,104a17.13,17.13,0,0,1-17.11-17.11h3.71a13.4,13.4,0,0,0,26.81,0h3.71A17.13,17.13,0,0,1,422.29,104Z"/><path class="cls-7" d="M930.84,103.33a16.47,16.47,0,0,1-16.46-16.46H918a12.89,12.89,0,0,0,25.78,0h3.57A16.47,16.47,0,0,1,930.84,103.33Z"/></g></g></svg>