<svg xmlns="http://www.w3.org/2000/svg" viewBox="0 0 295.31 94.87"><defs><style>.cls-1{fill:#f5eee7;}.cls-2{fill:#c5006c;}.cls-3{fill:#2f4644;}.cls-4{fill:#40c1fb;}</style></defs><title>titulo-artes</title><g id="Layer_2" data-name="Layer 2"><g id="Layer_1-2" data-name="Layer 1"><path class="cls-1" d="M84,35.74l10.46,0v0A16.85,16.85,0,1,0,94.27,2l-28.33.13.3,67.4,7.49,0-.15-33.9.2.22,31.11,33.56,10.16,0ZM94.31,9.45a9.36,9.36,0,1,1,.08,18.72v0l-20.84.09L73.46,9.55Z"/><polygon class="cls-1" points="172.59 1.64 172.6 4.14 153.47 4.22 153.76 69.13 146.27 69.16 145.99 4.26 127.26 4.34 127.25 1.84 172.59 1.64"/><polygon class="cls-1" points="194.78 8.98 194.87 29.7 220.66 29.59 220.67 32.09 194.88 32.2 195.01 61.46 232.44 61.29 232.47 68.78 187.56 68.98 187.26 1.53 232.17 1.33 232.2 8.82 194.78 8.98"/><path class="cls-1" d="M295.31,48.66a21.26,21.26,0,0,1-42.51.19l7.49,0A13.77,13.77,0,1,0,274,35a17.5,17.5,0,1,1,17.42-17.58l-7.49,0a10,10,0,1,0-10,10.06A21.24,21.24,0,0,1,295.31,48.66Z"/><path class="cls-1" d="M22.64,26.07,34.84,62.2l-24.07.11L22.64,26.07M22.54,2.34.42,69.84l44.83-.2L22.54,2.34Z"/><rect class="cls-2" x="0.01" y="78.12" width="45.54" height="4" transform="translate(-0.36 0.1) rotate(-0.25)"/><rect class="cls-3" x="72.04" y="77.54" width="160.48" height="4" transform="translate(-0.35 0.68) rotate(-0.25)"/><rect class="cls-4" x="44.14" y="83.13" width="23.47" height="4" transform="translate(-43.92 64.88) rotate(-45.25)"/></g></g></svg>